<?xml version="1.0" encoding="ISO8859-1" standalone="no"?>

<!DOCTYPE svg PUBLIC "-//W3C//DTD SVG 1.1//EN"

"http://www.w3.org/Graphics/SVG/1.1/DTD/svg11.dtd">

<svg viewBox="-583 -281 3646.81159329891 3043.70436360333" id="rootDoc"  max_x="2555" max_y="2805" width="2480" height="2480" version="1.1" xmlns="http://www.w3.org/2000/svg" xmlns:xlink="http://www.w3.org/1999/xlink">

<defs>

<style type="text/css">

<![CDATA[

path {stroke-width: 5;}

line { fill:none; stroke-linecap: round; stroke-width: 5; }

text{font-family: Arial;font-size: 25px;}.collapsed {stroke-width:1;stroke: gray;fill: #c8c1bc;}

]]>

</style>

<path id="itptgI1"  d="M1145.71059516999,1083.31718342175 L1182.40515886673,1153.96436822114" />

<path id="tpI2" d="M1054.45906192859,1142.49688920279 L1136.97232688684,1185.85820934642" />

<path id="itptgI3"  d="M1281.74460559892,903.442873159248 L1289.86551684355,812.955819954854" />

<path id="tpI4" d="M1008.00980805741,824.652800636648 L1068.3571675155,932.69662149824" />

<path id="itptgI5"  d="M1606.22687271598,797.053164466569 L1670.64964846755,715.881392739662" />

<path id="tpI6" d="M1285.57905486493,654.178811222688 L1291.18654062109,582.106584594449" />

<path id="itptgI7"  d="M2019.15022170094,1017.34251250495 L2168.61269431314,972.327203325734" />

<path id="tpI8" d="M1724.26207432938,574.313782979301 L1770.06286570524,511.354164285702" />

<path id="itptgI9"  d="M2212.13860932259,1625.93010494873 L2357.83826893785,1681.92534466301" />

<path id="tpI10" d="M2219.77380656659,838.637497448053 L2295.70534072479,807.532286869765" />

<path id="itptgI11"  d="M1775.78302834038,2404.17045948277 L1842.30868369599,2545.37025114018" />

<path id="tpI12" d="M2516.79581056426,1452.74020907966 L2555.20670204157,1459.14024659247" />

<path id="tpI13" d="M2212.76381287788,2093.93003389563 L2253.49552176868,2129.68591738276" />

<path id="tpI14" d="M1616.36848770971,2478.47192131789 L1639.40412361412,2554.27260386421" />

<path id="itptgI15"  d="M36.991836415642,2402.95405422914 L149.95593672355,2295.24297508939" />

<path id="tpI16" d="M842.531784186812,2805.05852788903 L863.390815769725,2722.92465161026" />

<path id="tpI17" d="M62.9868194462783,2373.79294819712 L138.084493687088,2301.45288022934" />

<path id="tpI18" d="M-341.604891257334,1579.4512193423 L-255.933770955686,1561.06409471366" />

</defs>

<g id="colorRanges" display="block"></g><line stroke="black" style="stroke-width: 2;" x1='-583' y1='-274.75' x2='-575.146596858639' y2='-274.75' /><text style="font-size: 25" x='-570.146596858639' y='-268.5'>1</text><g id='mainTree'><g id="gOROOT">

<line stroke="#000000"  x1="1230.78482486111" y1="1222.24949163659" x2="1239.53924124306" y2="1239.11247458183"/>

<g id="nodesgOROOT"><path stroke="#000000" fill="none" d="M1230.78482486111,1222.24949163659 A20,20 0 0,1 1230.78482486111,1222.24949163659"></path>

<g id="gI1">

<line stroke="#000000"  x1="1194.59958216915" y1="1152.54854256559" x2="1230.78482486111" y2="1222.24949163659"/>

<g id="nodesgI1"><path stroke="#000000" fill="none" d="M1154.66702565852,1190.73298429319 A98.5340314136126,98.5340314136126 0 0,1 1248.80680206943,1141.86032614723"></path>

<g id="gI2">

<g id="nodesgI2">

<text xml:space="preserve" id="tI2"  x="1054.45906192859" y="1142.49688920279" transform="rotate(390, 1054.45906192859, 1142.49688920279)" fill="black">Deltabot</text>

<line stroke="#000000" stroke-width="1" x1="1147.86577903194" y1="1186.80628272251" x2="1154.66702565852" y2="1190.73298429319" />

</g></g>

<g id="gI3">

<line stroke="#000000"  x1="1269.86451158719" y1="907.201169751117" x2="1248.80680206943" y2="1141.86032614723"/>

<g id="nodesgI3"><path stroke="#000000" fill="none" d="M1082.19717281679,945.474588192541 A334.13612565445,334.13612565445 0 0,1 1447.719255458,978.27560033627"></path>

<g id="gI4">

<g id="nodesgI4">

<text xml:space="preserve" id="tI4"  x="1008.00980805741" y="824.652800636648" transform="rotate(421, 1008.00980805741, 824.652800636648)" fill="black">SolarSinter</text>

<line stroke="#000000" stroke-width="1" x1="1078.4882376746" y1="938.552179579078" x2="1082.19717281679" y2="945.474588192541" />

</g></g>

<g id="gI5">

<line stroke="#000000"  x1="1594.18378845095" y1="793.731601826902" x2="1447.719255458" y2="978.27560033627"/>

<g id="nodesgI5"><path stroke="#000000" fill="none" d="M1276.13503108391,671.408847467694 A569.738219895288,569.738219895288 0 0,1 1785.53242624881,1075.69537097046"></path>

<g id="gI6">

<g id="nodesgI6">

<text xml:space="preserve" id="tI6"  x="1285.57905486493" y="654.178811222688" transform="rotate(273, 1285.57905486493, 654.178811222688)" fill="black">Qu-Bd</text>

<line stroke="#000000" stroke-width="1" x1="1276.63312469378" y1="663.571255767653" x2="1276.13503108391" y2="671.408847467694" />

</g></g>

<g id="gI7">

<line stroke="#000000"  x1="2011.12477307106" y1="1007.75098293215" x2="1785.53242624881" y2="1075.69537097046"/>

<g id="nodesgI7"><path stroke="#000000" fill="none" d="M1707.1432137709,583.989146888048 A805.340314136126,805.340314136126 0 0,1 1991.73541383224,1528.90636746764"></path>

<g id="gI8">

<g id="nodesgI8">

<text xml:space="preserve" id="tI8"  x="1724.26207432938" y="574.313782979301" transform="rotate(305, 1724.26207432938, 574.313782979301)" fill="black">Darwin</text>

<line stroke="#000000" stroke-width="1" x1="1711.69863452669" y1="577.591953547339" x2="1707.1432137709" y2="583.989146888048" />

</g></g>

<g id="gI9">

<line stroke="#000000"  x1="2211.65540877731" y1="1613.42584826366" x2="1991.73541383224" y2="1528.90636746764"/>

<g id="nodesgI9"><path stroke="#000000" fill="none" d="M2200.11770028206,837.836974396294 A1040.94240837696,1040.94240837696 0 0,1 1683.66000140028,2181.66177617823"></path>

<g id="gI10">

<g id="nodesgI10">

<text xml:space="preserve" id="tI10"  x="2219.77380656659" y="838.637497448053" transform="rotate(337, 2219.77380656659, 838.637497448053)" fill="black">Mendel</text>

<line stroke="#000000" stroke-width="1" x1="2207.36132039283" y1="834.802850372526" x2="2200.11770028206" y2="837.836974396294" />

</g></g>

<g id="gI11">

<line stroke="#000000"  x1="1784.07595584658" y1="2394.79315092936" x2="1683.66000140028" y2="2181.66177617823"/>

<g id="nodesgI11"><path stroke="#000000" fill="none" d="M2500.50968501088,1441.69581343572 A1276.5445026178,1276.5445026178 0 0,1 316.121292299591,2120.91656847942"></path>

<g id="gI12">

<g id="nodesgI12">

<text xml:space="preserve" id="tI12"  x="2516.79581056426" y="1452.74020907966" transform="rotate(9, 2516.79581056426, 1452.74020907966)" fill="black">Up!</text>

<line stroke="#000000" stroke-width="1" x1="2508.26444068112" y1="1442.93666209519" x2="2500.50968501088" y2="1441.69581343572" />

</g></g>

<g id="gI13">

<g id="nodesgI13">

<text xml:space="preserve" id="tI13"  x="2212.76381287788" y="2093.93003389563" transform="rotate(40, 2212.76381287788, 2093.93003389563)" fill="black">Orca</text>

<line stroke="#000000" stroke-width="1" x1="2210.68317057899" y1="2081.10175524323" x2="2204.74796449767" y2="2075.95886989811" />

</g></g>

<g id="gI14">

<g id="nodesgI14">

<text xml:space="preserve" id="tI14"  x="1616.36848770971" y="2478.47192131789" transform="rotate(72, 1616.36848770971, 2478.47192131789)" fill="black">Mosaic</text>

<line stroke="#000000" stroke-width="1" x1="1621.36390824886" y1="2466.4744391155" x2="1619.03207284052" y2="2458.97520685285" />

</g></g>

<g id="gI15">

<line stroke="#000000"  x1="145.608037248659" y1="2283.50062877625" x2="316.121292299591" y2="2120.91656847942"/>

<g id="nodesgI15"><path stroke="#000000" fill="none" d="M860.227425876236,2703.68033475024 A1512.14659685864,1512.14659685864 0 0,1 -240.092788040588,1549.69770612874"></path>

<g id="gI16">

<g id="nodesgI16">

<text xml:space="preserve" id="tI16"  x="842.531784186812" y="2805.05852788903" transform="rotate(284, 842.531784186812, 2805.05852788903)" fill="black">McWire</text>

<line stroke="#000000" stroke-width="1" x1="858.255059484761" y1="2711.28202612246" x2="860.227425876236" y2="2703.68033475024" />

</g></g>

<g id="gI17">

<g id="nodesgI17">

<text xml:space="preserve" id="tI17"  x="62.9868194462783" y="2373.79294819712" transform="rotate(316, 62.9868194462783, 2373.79294819712)" fill="black">Makerbot</text>

<line stroke="#000000" stroke-width="1" x1="139.924262080295" y1="2288.92009745281" x2="145.608037248659" y2="2283.50062877625" />

</g></g>

<g id="gI18">

<g id="nodesgI18">

<text xml:space="preserve" id="tI18"  x="-341.604891257334" y="1579.4512193423" transform="rotate(348, -341.604891257334, 1579.4512193423)" fill="black">PopFab</text>

<line stroke="#000000" stroke-width="1" x1="-247.779718246463" y1="1551.30613545909" x2="-240.092788040588" y2="1549.69770612874" />

</g></g>

</g></g></g></g></g></g></g></g></g></g></g></g></g></g></g></g></g>

<g id='datasets'></g>

<g id='bootstraps'><path fill="white" d="M1182.96144785062,1154.79535712985 L1137.71733482873,1087.20934123815 1165.70409610028,1071.81305739403 1203.13379921054,1144.32288237369 z" /><text style="font-size: 23px" fill="black"><textPath xlink:href="#itptgI1">Angular</textPath></text>

<path fill="white" d="M1281.62151459669,904.435268546768 L1293.04553762291,812.331479050965 1267.0253215446,809.902540268081 1258.78779383626,902.38622913843 z" /><text style="font-size: 23px" fill="black"><textPath xlink:href="#itptgI3">XYZ-bed</textPath></text>

<path fill="white" d="M1605.5896663148,797.823857662533 L1672.8865029043,716.429173029861 1653.24502743479,700.791614910033 1587.60843057737,783.552934109383 z" /><text style="font-size: 23px" fill="black"><textPath xlink:href="#itptgI5">XYZ-head</textPath></text>

<path fill="white" d="M2018.18871181663,1017.61728284972 L2170.18520842162,974.181296951853 2162.93465288257,950.007359808712 2011.56490551668,995.624590719511 z" /><text style="font-size: 23px" fill="black"><textPath xlink:href="#itptgI7">XY-head Z-bed</textPath></text>

<path fill="white" d="M2211.20917133295,1625.56112659786 L2358.1357090021,1683.88961346036 2367.02511756599,1660.80855155164 2219.45126478665,1604.11516959951 z" /><text style="font-size: 23px" fill="black"><textPath xlink:href="#itptgI9">XZ-head Y-bed</textPath></text>

<path fill="white" d="M1775.36495231786,2403.26204744003 L1841.45485089782,2546.86478124689 1863.5461533889,2536.46970220129 1796.15269930389,2393.46798752357 z" /><text style="font-size: 23px" fill="black"><textPath xlink:href="#itptgI11">X-head YZ-bed</textPath></text>

<path fill="white" d="M150.67441973998,2294.54743058679 L37.0958667277787,2404.49983914052 20.3932857784514,2386.99507053318 134.814815902914,2277.91435678399 z" /><text style="font-size: 23px" fill="black"><textPath xlink:href="#itptgI15">Z-head XY-bed</textPath></text>

</g>

<g id='dashLinks'><line style="stroke:#aaaaaa; stroke-width:0.3; stroke-dasharray:5,5;" x1="1147.86577903194" y1="1186.80628272251" x2="1143.53565201302" y2="1184.30628272251" />

<line style="stroke:#aaaaaa; stroke-width:0.3; stroke-dasharray:5,5;" x1="1078.4882376746" y1="938.552179579078" x2="1076.12688230074" y2="934.14491276184" />

<line style="stroke:#aaaaaa; stroke-width:0.3; stroke-dasharray:5,5;" x1="1276.63312469378" y1="663.571255767653" x2="1276.95024429206" y2="658.581322385294" />

<line style="stroke:#aaaaaa; stroke-width:0.3; stroke-dasharray:5,5;" x1="1711.69863452669" y1="577.591953547339" x2="1714.59891907455" y2="573.519073787087" />

<line style="stroke:#aaaaaa; stroke-width:0.3; stroke-dasharray:5,5;" x1="2207.36132039283" y1="834.802850372526" x2="2211.97309186335" y2="832.87112474406" />

<line style="stroke:#aaaaaa; stroke-width:0.3; stroke-dasharray:5,5;" x1="2508.26444068112" y1="1442.93666209519" x2="2513.2016351245" y2="1443.72666907506" />

<line style="stroke:#aaaaaa; stroke-width:0.3; stroke-dasharray:5,5;" x1="2210.68317057899" y1="2081.10175524323" x2="2214.46191845076" y2="2084.37605891296" />

<line style="stroke:#aaaaaa; stroke-width:0.3; stroke-dasharray:5,5;" x1="1621.36390824886" y1="2466.4744391155" x2="1622.8485101255" y2="2471.24895032272" />

<line style="stroke:#aaaaaa; stroke-width:0.3; stroke-dasharray:5,5;" x1="858.255059484761" y1="2711.28202612246" x2="856.999319548856" y2="2716.12176962944" />

<line style="stroke:#aaaaaa; stroke-width:0.3; stroke-dasharray:5,5;" x1="139.924262080295" y1="2288.92009745281" x2="136.305591889769" y2="2292.37049251022" />

<line style="stroke:#aaaaaa; stroke-width:0.3; stroke-dasharray:5,5;" x1="-247.779718246463" y1="1551.30613545909" x2="-252.673730477537" y2="1552.33016879942" />

</g>

<g id='horTransfers'></g>

</svg>

